<?xml version="1.0" standalone="no"?>
<!DOCTYPE svg PUBLIC "-//W3C//DTD SVG 20010904//EN"
 "http://www.w3.org/TR/2001/REC-SVG-20010904/DTD/svg10.dtd">
<svg version="1.0" xmlns="http://www.w3.org/2000/svg"
 width="700.000000pt" height="700.000000pt" viewBox="0 0 700.000000 700.000000"
 preserveAspectRatio="xMidYMid meet">
<metadata>
Created by potrace 1.11, written by Peter Selinger 2001-2013
</metadata>
<g transform="translate(0.000000,700.000000) scale(0.100000,-0.100000)"
fill="#000000" stroke="none">
<path d="M3225 6989 c-1008 -86 -1908 -581 -2515 -1384 -562 -742 -804 -1670
-674 -2590 54 -385 153 -701 339 -1080 471 -962 1389 -1664 2444 -1869 258
-51 366 -60 681 -60 315 0 423 9 681 60 1053 205 1974 909 2444 1869 57 116
124 265 149 332 266 710 296 1487 85 2209 -198 680 -619 1310 -1166 1747 -223
178 -392 285 -648 412 -418 207 -810 315 -1290 355 -140 11 -387 11 -530 -1z
m2394 -961 c41 -21 48 -29 63 -78 36 -116 18 -252 -52 -389 -93 -184 -200
-300 -524 -566 -107 -88 -195 -166 -195 -174 -1 -16 58 -207 155 -498 35 -106
68 -212 74 -235 6 -24 53 -176 105 -338 51 -162 137 -437 190 -610 53 -173
106 -346 118 -383 l21 -68 -56 -55 -55 -56 -98 138 c-54 77 -184 261 -290 409
-105 149 -218 308 -250 355 -32 47 -75 108 -95 135 -20 28 -126 176 -235 330
-108 154 -208 295 -222 312 l-24 33 -152 -127 c-146 -121 -213 -180 -517 -448
-267 -235 -400 -358 -400 -369 0 -6 45 -129 101 -273 l100 -263 -57 -70 c-32
-38 -59 -70 -60 -70 -1 0 -82 115 -180 256 -154 221 -181 254 -199 249 -78
-26 -97 -13 -71 48 l15 36 -255 178 c-139 98 -254 181 -254 184 0 3 30 30 66
59 l66 53 46 -15 c26 -9 148 -54 272 -102 211 -80 226 -84 241 -68 35 38 379
423 444 497 38 44 72 82 75 85 49 48 400 467 400 477 -1 4 -199 148 -442 318
-754 530 -1242 876 -1255 889 -10 9 -2 23 42 66 l54 53 68 -20 c37 -12 185
-58 328 -103 143 -45 298 -93 345 -107 47 -13 195 -59 330 -102 135 -43 317
-101 405 -128 88 -28 273 -86 412 -130 l252 -80 164 196 c209 250 300 347 393
416 115 87 262 159 364 179 57 11 184 -4 229 -26z m-2184 -148 l90 -90 -19
-35 c-11 -19 -22 -35 -25 -35 -10 0 -216 209 -210 213 20 17 55 37 64 37 6 0
51 -40 100 -90z m675 -303 c0 -5 -10 -22 -21 -39 l-22 -30 -103 103 c-57 57
-104 107 -104 110 0 4 15 16 33 28 l32 20 93 -92 c50 -50 92 -95 92 -100z
m1209 -1201 l93 -94 -18 -31 c-10 -17 -23 -31 -29 -31 -6 0 -55 45 -110 101
l-100 100 28 25 c15 13 31 24 35 24 4 0 49 -42 101 -94z m209 -589 l92 -92
-20 -33 c-11 -17 -23 -32 -28 -32 -4 0 -54 47 -111 104 l-104 104 34 21 c19
12 36 21 39 21 3 0 47 -42 98 -93z m-2884 -824 c-111 -104 -120 -111 -136 -96
-10 9 -18 21 -18 26 0 6 51 59 113 118 l112 107 24 -22 23 -21 -118 -112z
m3536 -103 c18 -10 17 -15 -24 -113 -72 -170 -64 -158 -97 -141 -16 8 -29 17
-29 20 0 2 11 26 24 52 12 26 36 80 51 120 28 73 39 81 75 62z m-3800 -144 c0
-6 -49 -61 -110 -121 l-110 -110 -22 23 -23 22 115 115 c107 108 115 113 132
98 10 -9 18 -21 18 -27z m3610 -297 c0 -14 -98 -153 -146 -207 l-47 -53 -23
22 -23 22 46 51 c25 28 68 84 94 123 47 69 50 72 74 61 14 -6 25 -15 25 -19z
m-3976 -58 c16 -18 14 -22 -38 -95 -30 -42 -69 -101 -86 -130 l-30 -54 -30 15
-30 15 27 49 c36 63 150 219 161 219 5 0 17 -8 26 -19z m3609 -305 c15 -22 14
-24 -24 -45 -52 -30 -170 -69 -230 -77 l-49 -7 0 30 c0 28 2 30 78 47 42 10
104 30 137 46 74 35 70 35 88 6z m-505 -82 c8 -2 12 -15 10 -31 -3 -25 -7 -28
-40 -27 -21 0 -94 1 -163 2 l-125 2 0 28 c0 16 3 32 7 36 7 6 286 -2 311 -10z
m-508 -24 c0 -26 -4 -30 -37 -35 -101 -16 -163 -28 -211 -42 -30 -8 -55 -13
-57 -11 -2 1 -6 15 -10 30 -6 24 -3 29 20 38 44 17 207 49 253 49 40 1 42 0
42 -29z m-2835 -36 c19 -5 20 -13 20 -157 0 -90 -4 -155 -10 -159 -5 -4 -20
-8 -32 -8 -19 0 -22 7 -28 77 -8 76 -1 225 10 244 7 10 12 11 40 3z m2347
-109 c6 -14 9 -27 7 -28 -2 -2 -36 -25 -76 -50 -39 -26 -93 -65 -120 -87 -26
-22 -51 -40 -54 -40 -4 0 -14 10 -22 23 -15 23 -13 25 66 89 93 74 156 117
175 117 7 1 18 -10 24 -24z m-451 -434 c-44 -47 -93 -99 -110 -116 l-31 -29
-22 21 -21 21 109 116 108 116 23 -22 22 -21 -78 -86z m-1780 -33 c22 -46 58
-106 79 -134 36 -48 38 -53 22 -66 -35 -31 -40 -28 -85 39 -44 67 -121 213
-115 218 9 7 44 24 50 25 4 0 26 -37 49 -82z m1465 -219 c19 -21 19 -21 -19
-53 -41 -34 -190 -130 -219 -141 -13 -5 -21 1 -30 21 -9 19 -10 28 -2 31 20 7
221 140 228 152 10 16 20 14 42 -10z m-1151 -144 c38 -24 99 -57 137 -71 37
-15 68 -30 68 -33 -1 -24 -15 -51 -27 -51 -37 0 -191 79 -277 141 -6 5 20 56
30 59 1 0 32 -20 69 -45z m707 -137 c-16 -16 -135 -39 -226 -45 l-99 -6 6 24
c4 13 7 27 7 32 0 4 22 7 49 7 52 0 179 22 221 38 22 9 26 7 37 -17 6 -14 8
-29 5 -33z"/>
<path d="M5305 5961 c-15 -6 -12 -9 20 -14 22 -4 50 -10 61 -13 16 -4 23 0 27
15 5 19 1 21 -41 20 -26 0 -56 -4 -67 -8z"/>
<path d="M5456 5936 c-5 -21 3 -34 45 -76 42 -42 56 -50 76 -45 28 7 26 19
-10 72 -18 27 -82 73 -100 73 -3 0 -8 -11 -11 -24z"/>
<path d="M5578 5764 c-4 -3 -2 -20 3 -37 5 -18 9 -45 9 -62 0 -23 3 -27 10
-15 15 24 13 120 -3 120 -8 0 -16 -3 -19 -6z"/>
</g>
</svg>
